<?xml version="1.0" encoding="utf-8"?>
<!-- Generator: Adobe Illustrator 23.1.1, SVG Export Plug-In . SVG Version: 6.00 Build 0)  -->
<svg version="1.1" id="Layer_1" xmlns="http://www.w3.org/2000/svg" xmlns:xlink="http://www.w3.org/1999/xlink" x="0px" y="0px"
	 viewBox="0 0 287 180" style="enable-background:new 0 0 287 180;" xml:space="preserve">
<style type="text/css">
	.st0{fill:url(#SVGID_1_);}
	.st1{fill:#D0D2D3;}
	.st2{fill:url(#SVGID_2_);}
</style>
<g>
	<linearGradient id="SVGID_1_" gradientUnits="userSpaceOnUse" x1="18.3674" y1="69.7462" x2="274.5944" y2="69.7462">
		<stop  offset="0" style="stop-color:#4EC8F4"/>
		<stop  offset="0.1938" style="stop-color:#48BFEE"/>
		<stop  offset="0.5098" style="stop-color:#3AA7DD"/>
		<stop  offset="0.9066" style="stop-color:#217FC2"/>
		<stop  offset="1" style="stop-color:#1B75BB"/>
	</linearGradient>
	<path class="st0" d="M270.3,47.4c-2.9-6.8-6.9-12.8-12.1-17.9c-5.2-5.1-11.3-9.1-18.4-12.1c-7.1-3-14.9-4.5-23.4-4.5
		c-8.5,0-16.3,1.5-23.4,4.5c-7.2,3-13.3,7.1-18.5,12.2c-5.2,5.2-9.2,11.2-12.2,18c-0.8,1.9-1.2,3.9-1.8,5.9l23,20.5
		c-0.2-1.4-0.4-2.8-0.4-4.3v-0.3c0-4.7,0.8-9.1,2.4-13.2c1.6-4.1,3.9-7.8,6.7-10.9c2.9-3.1,6.3-5.6,10.3-7.4c4-1.8,8.5-2.7,13.4-2.7
		c4.8,0,9.2,0.9,13.3,2.7c4.1,1.8,7.6,4.3,10.6,7.4c3,3.1,5.3,6.8,6.9,11c1.6,4.2,2.4,8.6,2.4,13.3v0.3c0,4.7-0.8,9.1-2.4,13.2
		c-1.6,4.1-3.9,7.8-6.7,10.9c-2.9,3.1-6.3,5.6-10.4,7.4c-4.1,1.8-8.5,2.7-13.3,2.7c-4.9,0-103.9-89.3-103.9-89.3l0,0v-0.1L88.7,25.1
		v51.6c0,8.6-2.1,15.1-6.2,19.4c-4.1,4.3-9.8,6.5-17.1,6.5s-13-2.2-17.1-6.7c-4.1-4.5-6.2-11.1-6.2-20V45.2L18.4,55.5v21.1
		c0,15.9,4.2,27.9,12.5,36c8.3,8,19.8,12,34.3,12c7.2,0,13.7-1,19.6-3c5.9-2,10.9-5,15-9.1c4.1-4.1,7.3-9.1,9.5-15.2
		c1.5-4.1,2.3-8.9,2.8-13.9l2.1-28.5l60.3,55.1c5.2,5.1,11.3,9.1,18.4,12.1c7.1,3,14.9,4.5,23.4,4.5c8.5,0,16.3-1.5,23.4-4.5
		c7.2-3,13.3-7,18.5-12.2c5.2-5.2,9.2-11.2,12.1-18c2.9-6.8,4.4-14.2,4.4-22v-0.3C274.6,61.6,273.2,54.3,270.3,47.4z"/>
	<g>
		<g>
			<path class="st1" d="M51.9,165.6h-8.6v-19.8h8.2c3.9,0,6.4,1.9,6.4,4.9v0.1c0,2.7-1.8,4.1-3.4,4.7c2.4,0.6,4.5,2,4.5,4.7v0.1
				C59,163.5,56.1,165.6,51.9,165.6z M56.4,150.8c0-2.2-1.8-3.7-5-3.7h-6.7v7.8h6.5C54.2,154.9,56.4,153.5,56.4,150.8L56.4,150.8z
				 M57.5,160.1c0-2.4-2.1-3.9-6-3.9h-6.7v8h7.2C55.3,164.2,57.5,162.7,57.5,160.1L57.5,160.1z"/>
			<path class="st1" d="M84.2,165.6l-2.5-5.6H70l-2.5,5.6H66l9.2-20h1.4l9.2,20H84.2z M75.9,147.3l-5.2,11.5h10.5L75.9,147.3z"/>
			<path class="st1" d="M108.2,165.6v-9.3H95.5v9.3H94v-19.8h1.5v9.2h12.7v-9.2h1.5v19.8H108.2z"/>
			<path class="st1" d="M119.7,165.6v-19.8h1.5v19.8H119.7z"/>
			<path class="st1" d="M147.8,165.6l-2.5-5.6h-11.7l-2.5,5.6h-1.5l9.2-20h1.4l9.2,20H147.8z M139.4,147.3l-5.2,11.5h10.5
				L139.4,147.3z"/>
			<path class="st1" d="M163.4,155.7L163.4,155.7c0-5.6,4.1-10.3,9.7-10.3c3.7,0,5.7,1.4,7.5,3.1l-0.4,0.4c-1.6-1.5-3.6-3-7.1-3
				c-5.3,0-9.1,4.5-9.1,9.7v0.1c0,5.2,3.9,9.7,9.1,9.7c3.2,0,5.6-1.5,7.2-3.2l0.5,0.4c-1.7,1.8-4.2,3.4-7.7,3.4
				C167.5,165.9,163.4,161.4,163.4,155.7z"/>
			<path class="st1" d="M188.8,145.8h0.6V165h12.2v0.6h-12.8V145.8z"/>
			<path class="st1" d="M208.5,156.8v-11h0.6v11c0,5.7,3,8.5,7.4,8.5c4.4,0,7.4-2.8,7.4-8.5v-11.1h0.6v11c0,6.1-3.2,9.1-8,9.1
				C211.8,165.9,208.5,162.9,208.5,156.8z"/>
			<path class="st1" d="M234,145.8h8.1c2.3,0,4.1,0.6,5.2,1.7c0.8,0.8,1.3,1.9,1.3,3.3v0.1c0,2.4-1.6,4.2-3.8,4.7
				c2.7,0.4,4.9,2.3,4.9,4.9v0.1c0,3.3-2.6,5.1-7.1,5.1H234V145.8z M242.6,155.3c2.9,0,5.4-1.4,5.4-4.4v-0.1c0-2.7-2.2-4.4-5.9-4.4
				h-7.5v9H242.6z M242.6,165c4.1,0,6.5-1.7,6.5-4.5v-0.1c0-3-2.7-4.6-6-4.6h-8.4v9.2H242.6z"/>
		</g>
		<circle class="st1" cx="156.2" cy="157.4" r="1.8"/>
	</g>
</g>
<linearGradient id="SVGID_2_" gradientUnits="userSpaceOnUse" x1="190.6853" y1="37.9274" x2="169.9551" y2="62.6328">
	<stop  offset="0" style="stop-color:#4EC8F4;stop-opacity:0"/>
	<stop  offset="1" style="stop-color:#0062A0"/>
</linearGradient>
<path class="st2" d="M174.5,29.9c-5.2,5.2-9.2,11-12.2,17.9c-0.6,1.4-1.2,3.8-1.8,6l23.1,20.4c-0.2-1.7-0.4-3.4-0.4-4.2v-0.3
	c0-4.7,0.8-9.1,2.4-13.2s3.9-7.8,6.7-10.9C195.3,42.3,179.7,24.7,174.5,29.9z"/>
</svg>
